<svg viewBox="0 0 256 302" preserveAspectRatio="xMidYMid"><path d="M217.168 23.507C203.234 7.625 178.046.816 145.823.816h-93.52A13.393 13.393 0 0039.076 12.11L.136 259.077c-.774 4.87 2.997 9.28 7.933 9.28h57.736l14.5-91.971-.45 2.88c1.033-6.501 6.593-11.296 13.177-11.296h27.436c53.898 0 96.101-21.892 108.429-85.221.366-1.873.683-3.696.957-5.477-1.556-.824-1.556-.824 0 0 3.671-23.407-.025-39.34-12.686-53.765" fill="#444"></path><path d="M228.897 82.749c-12.328 63.32-54.53 85.221-108.429 85.221H93.024c-6.584 0-12.145 4.795-13.168 11.296L61.817 293.621c-.674 4.262 2.622 8.124 6.934 8.124h48.67a11.71 11.71 0 0011.563-9.88l.474-2.48 9.173-58.136.591-3.213a11.71 11.71 0 0111.562-9.88h7.284c47.147 0 84.064-19.154 94.852-74.55 4.503-23.15 2.173-42.478-9.739-56.054-3.613-4.112-8.1-7.508-13.327-10.28-.283 1.79-.59 3.604-.957 5.477z"></path></svg>
